<svg xmlns="http://www.w3.org/2000/svg" viewBox="0 0 1200 630" width="1200" height="630">
  <defs>
    <linearGradient id="bg" x1="0" y1="0" x2="1" y2="1">
      <stop offset="0" stop-color="#111726"/><stop offset="1" stop-color="#080b12"/>
    </linearGradient>
    <radialGradient id="glow" cx="0.74" cy="0.5" r="0.55">
      <stop offset="0" stop-color="#5b8cff" stop-opacity="0.35"/><stop offset="1" stop-color="#5b8cff" stop-opacity="0"/>
    </radialGradient>
    <linearGradient id="card" x1="0" y1="0" x2="0" y2="1">
      <stop offset="0" stop-color="#6ea0ff"/><stop offset="0.55" stop-color="#5b8cff"/><stop offset="1" stop-color="#4a6ff0"/>
    </linearGradient>
  </defs>
  <rect width="1200" height="630" fill="url(#bg)"/>
  <rect width="1200" height="630" fill="url(#glow)"/>

  <!-- wordmark -->
  <text x="90" y="300" font-family="system-ui, Segoe UI, sans-serif" font-size="122" font-weight="800" letter-spacing="-4">
    <tspan fill="#eef1f8">Hall</tspan><tspan fill="#5b8cff"> Pass</tspan>
  </text>
  <text x="96" y="372" font-family="system-ui, Segoe UI, sans-serif" font-size="40" font-weight="500" fill="#9aa4bb">Your hall pass to every game.</text>
  <text x="96" y="430" font-family="ui-monospace, monospace" font-size="24" letter-spacing="3" fill="#6a7590">PLAY FREE · UNBLOCKED · NO DOWNLOADS</text>

  <!-- badge logo -->
  <g transform="translate(858 128) scale(1.55)">
    <path d="M38 10 L100 66 L162 10" fill="none" stroke="#2f4bc0" stroke-width="15" stroke-linejoin="round" stroke-linecap="round"/>
    <rect x="91" y="58" width="18" height="20" rx="5" fill="#3f5fd6"/>
    <rect x="33" y="70" width="134" height="140" rx="22" fill="url(#card)"/>
    <rect x="47" y="82" width="106" height="18" rx="9" fill="#ffffff" opacity="0.14"/>
    <rect x="84" y="90" width="32" height="8" rx="4" fill="#0d1017" opacity="0.42"/>
    <circle cx="100" cy="152" r="35" fill="#0d1730"/>
    <path d="M89 133 L120 152 L89 171 Z" fill="#7fd6a0"/>
  </g>
</svg>
