<svg xmlns="http://www.w3.org/2000/svg" viewBox="0 0 1200 630" width="1200" height="630">
  <defs>
    <linearGradient id="bg" x1="0" y1="0" x2="1" y2="1">
      <stop offset="0" stop-color="#111726"/><stop offset="1" stop-color="#080b12"/>
    </linearGradient>
    <radialGradient id="glow" cx="0.72" cy="0.5" r="0.55">
      <stop offset="0" stop-color="#5b8cff" stop-opacity="0.35"/><stop offset="1" stop-color="#5b8cff" stop-opacity="0"/>
    </radialGradient>
    <linearGradient id="mbody" x1="0" y1="0" x2="0" y2="1">
      <stop offset="0" stop-color="#6ea0ff"/><stop offset="1" stop-color="#4a6ff0"/>
    </linearGradient>
  </defs>
  <rect width="1200" height="630" fill="url(#bg)"/>
  <rect width="1200" height="630" fill="url(#glow)"/>

  <!-- wordmark -->
  <text x="90" y="300" font-family="system-ui, Segoe UI, sans-serif" font-size="132" font-weight="800" letter-spacing="-4">
    <tspan fill="#eef1f8">Rec</tspan><tspan fill="#5b8cff">ess</tspan>
  </text>
  <text x="96" y="372" font-family="system-ui, Segoe UI, sans-serif" font-size="40" font-weight="500" fill="#9aa4bb">Every game, one click away.</text>
  <text x="96" y="430" font-family="ui-monospace, monospace" font-size="24" letter-spacing="3" fill="#6a7590">PLAY FREE · UNBLOCKED · NO DOWNLOADS</text>

  <!-- mascot (placeholder blue blob) -->
  <g transform="translate(842 150) scale(1.7)">
    <rect x="52" y="184" width="36" height="24" rx="11" fill="#2f4bc0"/>
    <rect x="112" y="184" width="36" height="24" rx="11" fill="#2f4bc0"/>
    <rect x="8" y="98" width="24" height="58" rx="12" fill="#3f5fd6"/>
    <rect x="168" y="98" width="24" height="58" rx="12" fill="#3f5fd6"/>
    <rect x="28" y="26" width="144" height="164" rx="46" fill="url(#mbody)"/>
    <ellipse cx="76" cy="96" rx="14" ry="17" fill="#f2f6ff"/>
    <ellipse cx="124" cy="96" rx="14" ry="17" fill="#f2f6ff"/>
    <circle cx="79" cy="100" r="7" fill="#0d1017"/>
    <circle cx="121" cy="100" r="7" fill="#0d1017"/>
    <rect x="74" y="130" width="52" height="30" rx="13" fill="#0d1730"/>
    <path d="M94 138 L110 145 L94 152 Z" fill="#7fd6a0"/>
  </g>
</svg>
