<svg xmlns="http://www.w3.org/2000/svg" viewBox="0 0 320 320">
  <defs><linearGradient id="dhbg" x1="0" y1="0" x2="0" y2="1"><stop offset="0" stop-color="#33303e"/><stop offset="1" stop-color="#1c1a24"/></linearGradient></defs>
  <rect width="320" height="320" fill="url(#dhbg)"/>
  <rect x="0" y="210" width="320" height="110" fill="#26242e"/>
  <g stroke="#141118" stroke-width="7" fill="none" stroke-linecap="round" opacity=".8">
    <path d="M20 300 Q120 250 200 268"/><path d="M40 306 Q140 258 214 278"/>
  </g>
  <g fill="#9aa4b0" opacity=".5"><circle cx="70" cy="250" r="20"/><circle cx="46" cy="238" r="14"/><circle cx="92" cy="236" r="13"/></g>
  <g transform="translate(146,188) rotate(-8)">
    <rect x="0" y="10" width="130" height="30" rx="9" fill="#e0473a"/>
    <path d="M22 10 L44 -8 L100 -8 L118 10 Z" fill="#e0473a"/>
    <rect x="48" y="-4" width="46" height="14" rx="3" fill="#20202a"/>
    <circle cx="28" cy="42" r="14" fill="#111"/><circle cx="104" cy="42" r="14" fill="#111"/>
    <circle cx="28" cy="42" r="6" fill="#888"/><circle cx="104" cy="42" r="6" fill="#888"/>
  </g>
</svg>
