<svg xmlns="http://www.w3.org/2000/svg" viewBox="0 0 320 320">
  <defs><linearGradient id="gsbg" x1="0" y1="0" x2="0" y2="1"><stop offset="0" stop-color="#2f3a58"/><stop offset="1" stop-color="#1a2136"/></linearGradient></defs>
  <rect width="320" height="320" fill="url(#gsbg)"/>
  <rect x="0" y="250" width="320" height="70" fill="#141a2c"/>
  <!-- getaway car -->
  <g transform="translate(96,188)">
    <rect x="0" y="24" width="128" height="34" rx="10" fill="#f2c53f"/>
    <path d="M22 24 L40 6 L96 6 L112 24 Z" fill="#f2c53f"/>
    <rect x="44" y="10" width="46" height="14" rx="3" fill="#9fd0e0"/>
    <circle cx="30" cy="60" r="12" fill="#1c1c1c"/><circle cx="100" cy="60" r="12" fill="#1c1c1c"/>
    <circle cx="30" cy="60" r="5" fill="#555"/><circle cx="100" cy="60" r="5" fill="#555"/>
  </g>
  <!-- two ragdoll shooters -->
  <circle cx="70" cy="150" r="14" fill="#5b8cff"/><rect x="62" y="164" width="16" height="34" rx="7" fill="#5b8cff"/>
  <rect x="76" y="150" width="30" height="7" rx="3" fill="#cfd8e8"/>
  <circle cx="250" cy="150" r="14" fill="#ff5a4a"/><rect x="242" y="164" width="16" height="34" rx="7" fill="#ff5a4a"/>
  <rect x="214" y="150" width="30" height="7" rx="3" fill="#cfd8e8"/>
  <!-- muzzle flash -->
  <g transform="translate(112,152)" fill="#ffd24a"><polygon points="0,0 12,-6 5,0 12,6"/></g>
</svg>
