<svg xmlns="http://www.w3.org/2000/svg" viewBox="0 0 320 320">
  <defs><linearGradient id="hhbg" x1="0" y1="0" x2="0" y2="1"><stop offset="0" stop-color="#4a3722"/><stop offset="1" stop-color="#281c10"/></linearGradient></defs>
  <rect width="320" height="320" fill="url(#hhbg)"/>
  <rect x="0" y="250" width="320" height="70" fill="#1e1508"/>
  <g transform="translate(40,120)">
    <rect x="0" y="40" width="150" height="110" fill="#c9884a"/>
    <path d="M-14 40 L75 -20 L164 40 Z" fill="#8a4a2a"/>
    <rect x="20" y="70" width="34" height="34" rx="3" fill="#7fd0ec"/>
    <rect x="96" y="70" width="34" height="60" fill="#5a3a1e"/>
  </g>
  <g transform="translate(232,182)"><circle cx="0" cy="0" r="15" fill="#5b8cff"/><rect x="-8" y="15" width="16" height="30" rx="6" fill="#5b8cff"/></g>
  <g transform="translate(228,72)"><rect x="-18" y="0" width="36" height="14" rx="3" fill="#3a3a44"/><rect x="-10" y="14" width="20" height="12" fill="#2a2a32"/><rect x="-16" y="26" width="32" height="8" rx="2" fill="#3a3a44"/></g>
  <g stroke="#ffd24a" stroke-width="3" opacity=".7"><line x1="228" y1="52" x2="228" y2="34"/><line x1="216" y1="54" x2="216" y2="40"/><line x1="240" y1="54" x2="240" y2="40"/></g>
</svg>
