<svg xmlns="http://www.w3.org/2000/svg" viewBox="0 0 320 320">
  <rect width="320" height="320" fill="#05060f"/>
  <!-- maze hint -->
  <g fill="none" stroke="#2036c0" stroke-width="8">
    <rect x="24" y="24" width="272" height="272" rx="14"/>
    <rect x="60" y="60" width="70" height="44" rx="8"/>
    <rect x="190" y="60" width="70" height="44" rx="8"/>
  </g>
  <!-- dots -->
  <g fill="#ffd24a"><circle cx="160" cy="220" r="6"/><circle cx="196" cy="220" r="6"/><circle cx="232" cy="220" r="6"/></g>
  <!-- pac-man -->
  <path d="M120 200 a52 52 0 1 0 0 4 L120 202 Z" fill="#ffe23a" transform="translate(0,-4)"/>
  <path d="M118 198 L64 178 A56 56 0 1 0 64 220 Z" fill="#ffe23a"/>
  <!-- ghost -->
  <g transform="translate(210,150)">
    <path d="M0 24 A26 26 0 0 1 52 24 V56 l-10 -8 -9 8 -8 -8 -8 8 -9 -8 -8 8 Z" fill="#ff5a4a"/>
    <circle cx="16" cy="22" r="8" fill="#fff"/><circle cx="38" cy="22" r="8" fill="#fff"/>
    <circle cx="18" cy="23" r="4" fill="#2036c0"/><circle cx="40" cy="23" r="4" fill="#2036c0"/>
  </g>
</svg>
