<svg xmlns="http://www.w3.org/2000/svg" viewBox="0 0 320 320">
  <rect width="320" height="320" fill="#141b28"/>
  <!-- faint grid -->
  <g stroke="#1e2839" stroke-width="2">
    <path d="M40 0V320 M80 0V320 M120 0V320 M160 0V320 M200 0V320 M240 0V320 M280 0V320"/>
    <path d="M0 40H320 M0 80H320 M0 120H320 M0 160H320 M0 200H320 M0 240H320 M0 280H320"/>
  </g>
  <!-- captured territory -->
  <rect x="40" y="120" width="160" height="140" fill="#5b8cff" opacity="0.85"/>
  <rect x="40" y="120" width="160" height="140" fill="none" stroke="#8fb2ff" stroke-width="4"/>
  <!-- trail -->
  <path d="M200 190 H260 V60 H120" fill="none" stroke="#3a63d0" stroke-width="10" stroke-linejoin="round" stroke-linecap="round" opacity="0.7"/>
  <!-- player head -->
  <rect x="106" y="46" width="28" height="28" rx="6" fill="#ffce4a" stroke="#fff" stroke-width="3"/>
</svg>
