<svg xmlns="http://www.w3.org/2000/svg" viewBox="0 0 320 320">
  <rect width="320" height="320" fill="#0f1a24"/>
  <!-- sea -->
  <rect width="320" height="320" fill="#123244" opacity="0.5"/>
  <!-- territories -->
  <path d="M20 40 L150 30 L170 120 L60 150 Z" fill="#5b8cff"/>
  <path d="M170 120 L150 30 L290 60 L280 160 Z" fill="#ff6a4a"/>
  <path d="M60 150 L170 120 L200 250 L40 270 Z" fill="#43c47c"/>
  <path d="M170 120 L280 160 L300 280 L200 250 Z" fill="#ffce4a"/>
  <!-- borders -->
  <g fill="none" stroke="#0f1a24" stroke-width="5">
    <path d="M20 40 L150 30 L170 120 L60 150 Z"/>
    <path d="M170 120 L150 30 L290 60 L280 160 Z"/>
    <path d="M60 150 L170 120 L200 250 L40 270 Z"/>
    <path d="M170 120 L280 160 L300 280 L200 250 Z"/>
  </g>
  <!-- arrows of expansion -->
  <g stroke="#fff" stroke-width="5" fill="#fff">
    <path d="M120 90 L165 118" stroke-linecap="round"/><polygon points="165,118 150,112 156,126"/>
  </g>
</svg>
